<svg width="1334" height="300" viewBox="0 0 1334 300" fill="none" xmlns="http://www.w3.org/2000/svg">
<g clip-path="url(#clip0_16_1110)">
<mask id="mask0_16_1110" style="mask-type:luminance" maskUnits="userSpaceOnUse" x="0" y="0" width="300" height="300">
<path d="M300 0H0V300H300V0Z" fill="white"/>
</mask>
<g mask="url(#mask0_16_1110)">
<path d="M252 0H48C21.4903 0 0 21.4903 0 48V252C0 278.51 21.4903 300 48 300H252C278.51 300 300 278.51 300 252V48C300 21.4903 278.51 0 252 0Z" fill="#FE8901"/>
</g>
<path d="M125 233L125 159C125 147.954 116.046 139 105 139H83C71.9543 139 63 147.954 63 159L63 233H125Z" fill="white"/>
<path d="M236 139V213C236 224.046 227.046 233 216 233H194C182.954 233 174 224.046 174 213V139H236Z" fill="white"/>
<path d="M63 67H216C227.046 67 236 75.9543 236 87V108C236 119.046 227.046 128 216 128H63V67Z" fill="white"/>
</g>
<path d="M433.22 258H393.526C390.175 258 387.705 257.292 386.117 255.878C384.706 254.286 384 251.81 384 248.45V76.55C384 73.1898 384.706 70.8023 386.117 69.3875C387.705 67.7958 390.175 67 393.526 67H421.047C424.399 67 427.222 67.5306 429.515 68.5917C431.985 69.6528 434.367 71.5097 436.66 74.1625L487.997 133.054V76.55C487.997 73.1898 488.703 70.8023 490.114 69.3875C491.702 67.7958 494.172 67 497.524 67H537.217C540.569 67 542.951 67.7958 544.362 69.3875C545.95 70.8023 546.744 73.1898 546.744 76.55V248.45C546.744 251.81 545.95 254.286 544.362 255.878C542.951 257.292 540.569 258 537.217 258H497.524C494.172 258 491.702 257.292 490.114 255.878C488.703 254.286 487.997 251.81 487.997 248.45V215.821L442.747 160.908V248.45C442.747 251.81 441.953 254.286 440.365 255.878C438.954 257.292 436.572 258 433.22 258ZM652.31 122.708L639.873 163.031H681.419L668.981 122.708C668.275 121.117 667.481 119.967 666.6 119.26C665.893 118.552 665.012 118.199 663.953 118.199H657.338C656.279 118.199 655.308 118.552 654.427 119.26C653.72 119.967 653.016 121.117 652.31 122.708ZM637.227 248.45C637.227 251.81 636.433 254.286 634.845 255.878C633.433 257.292 631.052 258 627.7 258H588.8C585.448 258 582.979 257.292 581.391 255.878C579.979 254.286 579.274 251.81 579.274 248.45V178.417C579.274 173.111 580.068 167.01 581.656 160.113C583.42 153.215 586.066 145.169 589.594 135.972L612.617 75.7542C613.675 72.7477 615.263 70.537 617.38 69.1222C619.673 67.7074 622.584 67 626.112 67H697.296C700.649 67 703.382 67.7074 705.499 69.1222C707.794 70.537 709.469 72.7477 710.527 75.7542L733.549 135.972C737.077 145.169 739.636 153.215 741.224 160.113C742.989 167.01 743.87 173.111 743.87 178.417V248.45C743.87 251.81 743.076 254.286 741.488 255.878C740.078 257.292 737.696 258 734.343 258H694.385C690.858 258 688.211 257.292 686.446 255.878C684.859 254.286 684.065 251.81 684.065 248.45V211.311H637.227V248.45ZM825.763 258H786.069C782.717 258 780.248 257.292 778.66 255.878C777.249 254.286 776.543 251.81 776.543 248.45V76.55C776.543 73.1898 777.249 70.8023 778.66 69.3875C780.248 67.7958 782.717 67 786.069 67H813.59C816.943 67 819.764 67.5306 822.058 68.5917C824.527 69.6528 826.909 71.5097 829.203 74.1625L880.54 133.054V76.55C880.54 73.1898 881.247 70.8023 882.657 69.3875C884.245 67.7958 886.714 67 890.067 67H929.76C933.113 67 935.495 67.7958 936.905 69.3875C938.493 70.8023 939.287 73.1898 939.287 76.55V248.45C939.287 251.81 938.493 254.286 936.905 255.878C935.495 257.292 933.113 258 929.76 258H890.067C886.714 258 884.245 257.292 882.657 255.878C881.247 254.286 880.54 251.81 880.54 248.45V215.821L835.289 160.908V248.45C835.289 251.81 834.496 254.286 832.908 255.878C831.497 257.292 829.116 258 825.763 258ZM1025.01 258H985.313C981.96 258 979.491 257.292 977.903 255.878C976.493 254.286 975.786 251.81 975.786 248.45V76.55C975.786 73.1898 976.493 70.8023 977.903 69.3875C979.491 67.7958 981.96 67 985.313 67H1012.83C1016.19 67 1019.01 67.5306 1021.3 68.5917C1023.77 69.6528 1026.15 71.5097 1028.45 74.1625L1079.78 133.054V76.55C1079.78 73.1898 1080.49 70.8023 1081.9 69.3875C1083.49 67.7958 1085.96 67 1089.31 67H1129C1132.36 67 1134.74 67.7958 1136.15 69.3875C1137.74 70.8023 1138.53 73.1898 1138.53 76.55V248.45C1138.53 251.81 1137.74 254.286 1136.15 255.878C1134.74 257.292 1132.36 258 1129 258H1089.31C1085.96 258 1083.49 257.292 1081.9 255.878C1080.49 254.286 1079.78 251.81 1079.78 248.45V215.821L1034.53 160.908V248.45C1034.53 251.81 1033.74 254.286 1032.15 255.878C1030.74 257.292 1028.36 258 1025.01 258ZM1271.62 258H1228.75C1225.4 258 1222.93 257.292 1221.34 255.878C1219.93 254.286 1219.22 251.81 1219.22 248.45V214.494L1178.73 160.113C1174.68 154.63 1171.94 149.855 1170.53 145.788C1169.3 141.72 1168.68 135.619 1168.68 127.483V76.55C1168.68 73.1898 1169.39 70.8023 1170.8 69.3875C1172.38 67.7958 1174.85 67 1178.2 67H1218.96C1222.31 67 1224.69 67.7958 1226.1 69.3875C1227.69 70.8023 1228.48 73.1898 1228.48 76.55V120.056C1228.48 121.824 1228.57 123.681 1228.75 125.626C1228.93 127.572 1229.63 129.429 1230.87 131.197L1243.04 150.297C1243.92 151.889 1244.8 153.038 1245.68 153.746C1246.74 154.453 1247.98 154.807 1249.39 154.807H1252.04C1253.45 154.807 1254.59 154.453 1255.48 153.746C1256.53 153.038 1257.5 151.889 1258.39 150.297L1270.56 131.197C1271.79 129.429 1272.5 127.572 1272.68 125.626C1272.85 123.681 1272.94 121.824 1272.94 120.056V76.55C1272.94 73.1898 1273.65 70.8023 1275.06 69.3875C1276.65 67.7958 1279.11 67 1282.47 67H1321.9C1325.25 67 1327.63 67.7958 1329.04 69.3875C1330.63 70.8023 1331.42 73.1898 1331.42 76.55V127.483C1331.42 135.619 1330.72 141.72 1329.31 145.788C1327.89 149.855 1325.25 154.63 1321.37 160.113L1281.14 214.76V248.45C1281.14 251.81 1280.35 254.286 1278.76 255.878C1277.35 257.292 1274.97 258 1271.62 258Z" fill="#0A0413"/>
<defs>
<clipPath id="clip0_16_1110">
<rect width="300" height="300" fill="white"/>
</clipPath>
</defs>
</svg>
